<svg width="164" height="200" viewBox="0 0 164 200" fill="none" xmlns="http://www.w3.org/2000/svg">
<rect width="164" height="200" rx="10" fill="#202023"/>
<path fill-rule="evenodd" clip-rule="evenodd" d="M78.55 81.3125H78.4862C76.125 81.3125 74.2649 81.3125 72.768 81.4348C71.2409 81.5596 69.9656 81.8187 68.8067 82.4093C66.9133 83.374 65.374 84.9133 64.4093 86.8067C63.8187 87.9656 63.5596 89.2409 63.4348 90.768C63.3125 92.2649 63.3125 94.125 63.3125 96.4862V96.55V103.45V103.514C63.3125 105.875 63.3125 107.735 63.4348 109.232C63.5596 110.759 63.8187 112.034 64.4093 113.193C65.374 115.087 66.9133 116.626 68.8067 117.591C69.9656 118.181 71.2409 118.44 72.768 118.565C74.2649 118.687 76.125 118.687 78.4862 118.687H78.55H85.45H85.5138C87.875 118.687 89.7351 118.687 91.232 118.565C92.759 118.44 94.0344 118.181 95.1934 117.591C97.0867 116.626 98.6259 115.087 99.5908 113.193C100.181 112.034 100.44 110.759 100.565 109.232C100.687 107.735 100.687 105.875 100.687 103.514V103.45V96.55V96.4862C100.687 94.125 100.687 92.2649 100.565 90.768C100.44 89.2409 100.181 87.9656 99.5908 86.8067C98.6259 84.9133 97.0867 83.374 95.1934 82.4093C94.0344 81.8187 92.759 81.5596 91.232 81.4348C89.7351 81.3125 87.875 81.3125 85.5138 81.3125H85.45H78.55ZM66.2893 108.858C66.2928 108.905 66.2965 108.952 66.3002 108.998C66.4105 110.347 66.6213 111.202 66.9709 111.888C67.66 113.241 68.7595 114.34 70.112 115.029C70.798 115.379 71.6528 115.59 73.0022 115.7C74.3683 115.811 76.1111 115.812 78.55 115.812H85.45C87.889 115.812 89.6318 115.811 90.9978 115.7C92.3471 115.59 93.202 115.379 93.8881 115.029C95.2405 114.34 96.3399 113.241 97.0292 111.888C97.3788 111.202 97.5896 110.347 97.6998 108.998C97.7034 108.952 97.7071 108.905 97.7107 108.858L96.4942 107.668L96.4532 107.628C95.736 106.926 95.1366 106.34 94.6076 105.9C94.0553 105.441 93.487 105.06 92.8067 104.843C91.7618 104.508 90.6382 104.508 89.5933 104.843C88.913 105.06 88.3447 105.441 87.7924 105.9C87.2632 106.34 86.664 106.926 85.9468 107.628L85.9207 107.654L82.7534 103.992L82.714 103.946C82.0054 103.127 81.4158 102.445 80.8899 101.931C80.3427 101.396 79.7702 100.945 79.0635 100.673C77.9838 100.256 76.797 100.207 75.6863 100.532C74.9594 100.745 74.3514 101.146 73.7617 101.634C73.1947 102.103 72.5504 102.733 71.7763 103.49L71.7331 103.533L66.2893 108.858ZM89.6667 96.1667C91.7838 96.1667 93.5 94.4504 93.5 92.3333C93.5 90.2162 91.7838 88.5 89.6667 88.5C87.5495 88.5 85.8333 90.2162 85.8333 92.3333C85.8333 94.4504 87.5495 96.1667 89.6667 96.1667Z" fill="#55555D"/>
</svg>
